{"accessors" : [{"bufferView" : 0, "byteOffset" : 0, "componentType" : 5123, "count" : 247479, "type" : "SCALAR", "max" : [58658], "min" : [0]}, {"bufferView" : 1, "byteOffset" : 0, "componentType" : 5126, "count" : 58659, "type" : "VEC3", "max" : [0.5002645254135132, 0.3701015114784241, 0.4997674524784088], "min" : [-0.49830493330955505, -0.3666321635246277, -0.5002527236938477], "name" : "POSITION"}, {"bufferView" : 1, "byteOffset" : 12, "componentType" : 5126, "count" : 58659, "type" : "VEC2", "max" : [0.9995704293251038, 2], "min" : [0, 1.0004241466522217], "name" : "TEXCOORD_0"}], "asset" : {"generator" : "Aspose.3D 25.3.0", "version" : "2.0"}, "buffers" : [{"uri" : "data:application/octet-stream;base64,", "byteLength" : 1668148}], "bufferViews" : [{"buffer" : 0, "byteOffset" : 0, "byteLength" : 494960, "target" : 34963}, {"buffer" : 0, "byteOffset" : 494964, "byteLength" : 1173180, "byteStride" : 20, "target" : 34962}], "images" : [{"uri" : "data:image/png;base64,"}], "materials" : [{"pbrMetallicRoughness" : {"baseColorFactor" : [1, 1, 1, 1], "baseColorTexture" : {"index" : 0, "texCoord" : 0}, "metallicFactor" : 1, "roughnessFactor" : 1}, "emissiveFactor" : [0, 0, 0], "alphaMode" : "OPAQUE", "doubleSided" : false}], "meshes" : [{"primitives" : [{"attributes" : {"POSITION" : 1, "TEXCOORD_0" : 2}, "indices" : 0, "material" : 0, "mode" : 4}]}], "nodes" : [{"mesh" : 0, "name" : "geometry_0"}, {"children" : [0], "name" : "world"}], "samplers" : [{"magFilter" : 9729, "minFilter" : 9729, "wrapS" : 10497, "wrapT" : 10497}], "scene" : 0, "scenes" : [{"nodes" : [1]}], "textures" : [{"sampler" : 0, "source" : 0, "name" : ""}]}