<svg width="25" height="25" viewBox="0 0 25 25" xmlns="http://www.w3.org/2000/svg">
<path d="M5.29876 20.4162C5.26575 20.2711 5.24206 20.1117 5.22575 19.9295C5.2071 19.7124 5.02494 19.5522 4.80433 19.5708C4.59072 19.5902 4.43303 19.782 4.45206 19.9998C4.47148 20.2193 4.50061 20.4142 4.54217 20.5957C4.58372 20.7784 4.74374 20.9013 4.92008 20.9013C4.94921 20.9013 4.97872 20.8982 5.00863 20.8911C5.21759 20.8412 5.34731 20.6289 5.29876 20.4162Z"/>
<path d="M14.9178 21.8368H9.76494C7.45203 21.8368 6.28451 21.7091 5.73493 21.2181C5.57335 21.0737 5.32827 21.1572 5.1869 21.3213C5.04513 21.4853 5.06105 21.6862 5.22224 21.8297C5.9466 22.4778 7.17782 22.628 9.76494 22.628H14.9178C15.1326 22.628 15.3062 22.4513 15.3062 22.2326C15.3062 22.014 15.1326 21.8368 14.9178 21.8368Z"/>
<path d="M14.2991 4.25009L13.4252 5.04087C13.2648 5.18559 13.2504 5.43587 13.393 5.59878C13.4695 5.68695 13.5763 5.73163 13.6831 5.73163C13.7748 5.73163 13.8672 5.69881 13.941 5.63159L14.8149 4.8408C14.9753 4.69609 14.9897 4.44581 14.8471 4.2829C14.7046 4.11921 14.4587 4.10418 14.2991 4.25009Z"/>
<path d="M9.35132 5.46355C9.41424 5.46355 9.47793 5.44813 9.53697 5.41532C9.72534 5.31054 9.79487 5.07053 9.69194 4.87916L9.13226 3.83413C9.02933 3.64237 8.7928 3.5712 8.60559 3.67637C8.41722 3.78115 8.3477 4.02115 8.45062 4.21253L9.0103 5.25755C9.0806 5.38882 9.21343 5.46355 9.35132 5.46355Z"/>
<path d="M17.7881 3.06194L16.9224 3.86142C16.7635 4.00812 16.7519 4.258 16.896 4.41972C16.9725 4.50592 17.0781 4.54941 17.1834 4.54941C17.2766 4.54941 17.3698 4.51541 17.4444 4.44661L18.3101 3.64712C18.469 3.50043 18.4806 3.25054 18.3365 3.08882C18.192 2.92671 17.9466 2.91564 17.7881 3.06194Z"/>
<path d="M10.0202 5.8297L9.15442 6.62919C8.99557 6.77588 8.98391 7.02577 9.12801 7.18748C9.20452 7.27368 9.31017 7.31717 9.41542 7.31717C9.50864 7.31717 9.60186 7.28317 9.67643 7.21437L10.5422 6.41488C10.701 6.26819 10.7127 6.0183 10.5686 5.85658C10.4245 5.69447 10.1786 5.6834 10.0202 5.8297Z"/>
<path d="M12.8489 2.75076L11.726 2.41784C11.519 2.35577 11.3046 2.47715 11.2448 2.68711C11.185 2.89706 11.303 3.11611 11.5093 3.177L12.6321 3.50992C12.6683 3.5206 12.7052 3.52574 12.7405 3.52574C12.9091 3.52574 13.064 3.41384 13.1134 3.24066C13.1732 3.0311 13.0547 2.81165 12.8489 2.75076Z"/>
<path d="M6.26936 5.14013C6.05574 5.15871 5.89728 5.35008 5.91592 5.56794L6.01613 6.75334C6.0336 6.95934 6.20294 7.11473 6.40258 7.11473C6.41346 7.11473 6.42511 7.11433 6.43637 7.11314C6.64999 7.09456 6.80846 6.90319 6.78981 6.68533L6.68961 5.49994C6.67135 5.28326 6.48764 5.11957 6.26936 5.14013Z"/>
<path d="M20.6366 5.41848C20.496 5.25242 20.2506 5.23463 20.089 5.37697C19.9263 5.51931 19.908 5.7692 20.0482 5.93447L20.811 6.83597C20.8879 6.92652 20.9967 6.97357 21.1054 6.97357C21.1951 6.97357 21.2856 6.94194 21.3587 6.87789C21.5214 6.73554 21.5397 6.48565 21.3994 6.32038L20.6366 5.41848Z"/>
<path d="M15.9759 5.81388C15.8349 5.64781 15.5898 5.63041 15.4282 5.77236C15.2655 5.9147 15.2472 6.16459 15.3874 6.32987L16.1503 7.23137C16.2272 7.32191 16.3359 7.36896 16.4447 7.36896C16.5344 7.36896 16.6249 7.33733 16.6979 7.27328C16.8606 7.13094 16.8789 6.88105 16.7387 6.71577L15.9759 5.81388Z"/>
<path d="M24.0807 14.511C24.5095 14.511 24.8575 14.1567 24.8575 13.7202V13.1441C24.8575 12.1524 24.4691 11.2763 23.3039 10.9006V9.58001H24.2154C24.2185 9.58001 24.2217 9.58001 24.2232 9.58001C24.6524 9.58001 25 9.30877 25 8.87226C25 8.83153 24.9973 8.86988 24.9918 8.83074C24.9111 3.79816 19.7438 0 12.9096 0C6.02172 0 0.827676 3.78907 0.827676 8.88056C0.827676 9.31707 1.17568 9.57962 1.60447 9.57962H1.94199V10.7769C1.16519 11.039 0 12.0152 0 13.1441V13.7202C0 14.1567 0.348005 14.511 0.776796 14.511C1.20559 14.511 1.55359 14.1567 1.55359 13.7202V13.1441C1.55359 12.8899 1.94199 12.6463 1.94199 12.4838V17.0921H1.60447C1.17568 17.0921 0.827676 17.4464 0.827676 17.8829C0.827676 23.4038 2.66635 25 9.02598 25H16.7939C23.1532 25 24.9918 23.4038 24.9918 17.8829C24.9918 17.4464 24.6438 17.0921 24.215 17.0921H23.3035V13.7202C23.3039 14.1567 23.6519 14.511 24.0807 14.511ZM12.9096 1.43924C18.5281 1.43924 22.8533 4.43949 23.3839 7.99804H2.43564C2.96658 4.43949 7.29139 1.43924 12.9096 1.43924ZM21.7503 9.57962V10.7769C20.9735 11.039 19.8083 12.0152 19.8083 13.1441V13.4161C19.8083 13.842 19.5415 14.2729 19.0315 14.2729C18.5215 14.2729 18.2547 13.842 18.2547 13.4161V13.1441C18.2547 11.7768 17.2309 10.7057 15.9243 10.7057C14.6177 10.7057 13.5939 11.7768 13.5939 13.1441V13.4161C13.5939 13.8566 13.122 14.2729 12.6229 14.2729C12.1238 14.2729 11.6519 13.8566 11.6519 13.4161V13.1441C11.6519 11.7768 10.6281 10.7057 9.32155 10.7057C8.01498 10.7057 6.99116 11.7768 6.99116 13.1441V13.4161C6.99116 13.8566 6.51926 14.2729 6.02017 14.2729C5.52107 14.2729 5.04917 13.8566 5.04917 13.4161V13.1441C5.04917 12.1524 4.66077 11.2763 3.49558 10.9006V9.58001L21.7503 9.57962ZM16.7939 23.4184H9.02598C3.36974 23.4184 2.48536 22.2322 2.39059 18.6737H2.41079C2.54129 18.6737 23.4289 18.6737 23.4289 18.6737C23.3342 22.2322 22.4502 23.4184 16.7939 23.4184ZM3.49558 17.0921V13.4157C3.49558 14.7375 4.65184 15.8541 6.02017 15.8541C7.38849 15.8541 8.54475 14.7375 8.54475 13.4157V13.1437C8.54475 12.7179 8.81158 12.2869 9.32155 12.2869C9.83151 12.2869 10.0983 12.7179 10.0983 13.1437V13.4157C10.0983 14.7375 11.2546 15.8541 12.6229 15.8541C13.9913 15.8541 15.1475 14.7375 15.1475 13.4157V13.1437C15.1475 12.7179 15.4143 12.2869 15.9243 12.2869C16.4343 12.2869 16.7011 12.7179 16.7011 13.1437V13.4157C16.7011 14.783 17.7249 15.8541 19.0315 15.8541C20.3381 15.8541 21.3619 14.783 21.3619 13.4157V13.1437C21.3619 12.8895 21.7503 12.6459 21.7503 12.4834V17.0917L3.49558 17.0921Z"/>
</svg>
