<svg width="18" height="30" viewBox="0 0 18 30" xmlns="http://www.w3.org/2000/svg">
<path d="M8.36545 20.8442C7.45261 20.8442 6.56027 20.5735 5.80128 20.0664C5.04228 19.5592 4.45072 18.8384 4.10139 17.9951C3.75206 17.1517 3.66066 16.2237 3.83875 15.3284C4.01683 14.4331 4.45641 13.6107 5.10188 12.9653C5.74735 12.3198 6.56973 11.8802 7.46503 11.7021C8.36033 11.524 9.28833 11.6154 10.1317 11.9648C10.975 12.3141 11.6959 12.9057 12.203 13.6647C12.7101 14.4237 12.9808 15.316 12.9808 16.2288C12.9808 17.4529 12.4946 18.6269 11.629 19.4924C10.7635 20.358 9.58953 20.8442 8.36545 20.8442ZM8.36545 12.7673C7.68082 12.7673 7.01157 12.9703 6.44232 13.3507C5.87307 13.731 5.4294 14.2716 5.1674 14.9042C4.90541 15.5367 4.83686 16.2327 4.97042 16.9041C5.10399 17.5756 5.43367 18.1924 5.91777 18.6765C6.40188 19.1606 7.01866 19.4903 7.69014 19.6239C8.36161 19.7574 9.05761 19.6889 9.69012 19.4269C10.3226 19.1649 10.8633 18.7212 11.2436 18.152C11.624 17.5827 11.827 16.9135 11.827 16.2288C11.827 15.3108 11.4623 14.4303 10.8131 13.7812C10.164 13.132 9.28351 12.7673 8.36545 12.7673Z" />
<path d="M16.8231 5.59615L13.7654 2.87885C13.6607 2.78504 13.5253 2.73273 13.3847 2.73173H10.7481L12.6664 0.825L11.8529 0L9.10677 2.73173H3.33754C3.19693 2.73273 3.06152 2.78504 2.95677 2.87885L0.184655 5.33942C0.125577 5.3942 0.0786279 5.46075 0.0468311 5.53478C0.0150343 5.6088 -0.000904922 5.68867 3.96564e-05 5.76923V26.4375C-0.000188033 26.5842 0.0555147 26.7256 0.155809 26.8327L2.43177 29.2875C2.631 29.5084 2.87376 29.6858 3.1448 29.8084C3.41584 29.931 3.70931 29.9962 4.00677 30H12.7241C13.0218 29.9964 13.3156 29.9309 13.5867 29.8078C13.8579 29.6846 14.1004 29.5065 14.2991 29.2846L16.8635 26.5183C16.9638 26.4111 17.0195 26.2698 17.0193 26.1231V6.02885C17.0192 5.94693 17.0016 5.86598 16.9678 5.79137C16.934 5.71677 16.8847 5.65022 16.8231 5.59615ZM15.8654 25.4077H12.4039V26.5615H14.9798L13.425 28.2288C13.3336 28.3333 13.2209 28.4172 13.0946 28.4748C12.9683 28.5325 12.8312 28.5627 12.6923 28.5635H4.0385C3.90031 28.5605 3.76427 28.5287 3.63909 28.4701C3.51391 28.4114 3.40236 28.3273 3.31158 28.2231L1.74812 26.5558H8.94235V25.4019H1.15389V6.75H4.0385V5.59615H1.64139L3.59139 3.86538H13.1395L15.0866 5.59615H7.50004V6.75H15.8654V25.4077Z" />
<path d="M11.25 26.0365C11.25 25.7179 10.9917 25.4596 10.6731 25.4596C10.3545 25.4596 10.0962 25.7179 10.0962 26.0365C10.0962 26.3552 10.3545 26.6135 10.6731 26.6135C10.9917 26.6135 11.25 26.3552 11.25 26.0365Z" />
<path d="M6.34623 6.13269C6.34623 5.81407 6.08793 5.55577 5.76931 5.55577C5.45068 5.55577 5.19238 5.81407 5.19238 6.13269C5.19238 6.45132 5.45068 6.70962 5.76931 6.70962C6.08793 6.70962 6.34623 6.45132 6.34623 6.13269Z" />
</svg>
