<svg width="16" height="15" viewBox="0 0 16 15" xmlns="http://www.w3.org/2000/svg">
<path d="M12.1666 15C12.3877 15 12.5996 14.9122 12.7559 14.7559C12.9122 14.5996 13 14.3877 13 14.1667V9.70833C13 9.32749 13.2633 9.00499 13.6058 8.84083C14.315 8.50254 14.8818 7.92462 15.2063 7.20907C15.5309 6.49351 15.5922 5.68633 15.3795 4.92996C15.1668 4.17359 14.6938 3.51666 14.0439 3.07511C13.394 2.63357 12.609 2.43578 11.8275 2.51666C11.5056 1.7685 10.9715 1.13107 10.2913 0.683191C9.61103 0.23531 8.81443 -0.00338745 7.99998 -0.00338745C7.18552 -0.00338745 6.38892 0.23531 5.70867 0.683191C5.02842 1.13107 4.49434 1.7685 4.17248 2.51666C3.3913 2.43634 2.60684 2.63441 1.95742 3.07594C1.308 3.51747 0.83532 4.17411 0.622715 4.93008C0.410111 5.68605 0.471236 6.49281 0.795314 7.20812C1.11939 7.92343 1.68561 8.50135 2.39414 8.83999C2.73664 9.00499 2.99998 9.32749 2.99998 9.70749V14.1667C2.99998 14.3877 3.08777 14.5996 3.24405 14.7559C3.40033 14.9122 3.6123 15 3.83331 15H12.1666Z" />
</svg>
