<svg width="30" height="30" viewBox="0 0 30 30" fill="none" xmlns="http://www.w3.org/2000/svg">
<path d="M15.3237 29.9352C14.7044 29.8252 14.5498 29.2715 14.1901 28.914C14.1114 28.6488 13.8985 28.5113 13.8118 28.2535C13.7069 28.0138 13.5575 27.8155 13.4337 27.5928C13.087 27.2199 12.81 26.7932 12.6147 26.331C12.3155 25.9165 12.0622 25.4736 11.8589 25.0093C11.555 24.5976 11.3013 24.1542 11.1028 23.6878C10.8626 23.5763 10.9017 23.1983 10.6616 23.0878C10.6091 22.7988 10.3994 22.6561 10.347 22.3671C9.99566 22.0208 9.87506 21.4558 9.52795 21.1053C9.45966 20.8593 9.33006 20.6328 9.15018 20.4448C9.08867 20.196 8.95787 19.9677 8.7716 19.7838C8.7144 19.5934 8.62971 19.4115 8.51993 19.2433C8.49031 19.1933 8.41507 19.1588 8.39357 19.1228C8.25777 18.8813 8.20585 18.6271 8.07897 18.4021C8.06455 18.3771 7.96309 18.3634 7.9526 18.3419C7.88523 18.1991 7.8168 17.9463 7.70092 17.7418C7.68676 17.7169 7.58531 17.7033 7.57483 17.6821C7.50902 17.5421 7.43508 17.2821 7.32287 17.0821C7.25838 16.9671 7.13935 16.9036 7.07093 16.7821C6.97498 16.6111 6.90943 16.4278 6.81899 16.2413C6.76996 16.1398 6.70548 16.0664 6.62998 15.9414C6.36781 15.5104 6.13186 14.9099 5.81097 14.4396C4.85458 12.6281 3.88858 10.8257 2.91297 9.03241C2.7195 9.09091 2.21115 9.16141 2.03104 9.03241C1.67371 8.99291 1.52036 8.75742 1.33815 8.55192C1.12534 8.39597 0.934715 8.21428 0.771081 8.01142C0.610897 7.80343 0.482696 7.56666 0.330115 7.35066C0.312769 7.21318 0.245965 7.08569 0.141091 6.98992C0.141244 6.84133 0.0975401 6.69572 0.0149844 6.56969C-0.0707439 5.36645 0.218171 4.51969 0.707635 3.86619C1.4866 3.37424 2.43172 3.1811 3.35368 3.32545C3.63079 3.24895 3.68584 2.96121 3.85782 2.78496C4.03872 2.61696 4.29198 2.51847 4.4249 2.30422C4.67186 2.25947 4.76571 2.0702 4.9917 2.00421C5.149 1.89421 5.4067 1.87922 5.49558 1.70422C5.88734 1.55141 6.26645 1.37066 6.62971 1.16348C7.10712 1.06793 7.59157 1.00765 8.07871 0.983217C8.33348 1.00489 8.58615 1.045 8.83453 1.10321C9.23984 1.21771 9.65091 1.32621 9.90547 1.58371C10.2138 1.51721 10.2791 1.21921 10.5347 1.10321C10.7148 0.934962 10.9882 0.855236 11.1639 0.682987C11.945 0.350322 12.7726 0.127653 13.6209 0.021981C15.8013 -0.114268 17.3098 0.389725 18.3459 1.34372C18.6207 1.28572 18.6941 1.03521 18.913 0.923464C19.1294 0.814168 19.3395 0.693743 19.5422 0.562718C20.3444 0.22672 21.4219 0.152736 22.6289 0.202735C22.6715 0.200092 22.7138 0.210701 22.7495 0.232978C22.7882 0.25724 22.8346 0.267699 22.8806 0.262488C23.8944 0.417487 24.5994 0.866721 25.4008 1.22397C25.5225 1.40797 25.7456 1.49597 25.9047 1.64447C26.0539 1.80247 26.1551 2.00672 26.4086 2.06472H27.6686C27.8383 2.17036 28.0337 2.2325 28.2359 2.2452C28.6006 2.47795 28.9684 2.70771 29.3068 2.9662C29.4476 3.2322 29.6597 3.43071 29.8107 3.68696C29.8523 3.8735 29.9158 4.05496 30 4.22794V5.18918C29.7903 6.10992 29.2463 6.71418 28.6771 7.29167C28.3436 7.41467 28.1119 7.63391 27.6688 7.65266C27.4728 8.18677 27.2415 8.7085 26.9762 9.21466C26.8648 10.3897 26.4649 11.2897 26.0942 12.2181C25.9257 12.6981 25.6305 13.0574 25.4651 13.5399C25.1921 13.9001 25.0862 14.4201 24.8358 14.8011C24.0439 16.5443 23.1608 18.2485 22.1898 19.9073C21.7242 20.7456 21.3171 21.6383 20.8669 22.4906C20.5279 23.4288 20.2304 24.4065 19.733 25.194C19.4098 26.1675 18.7764 26.844 18.2838 27.657C17.7377 28.3978 17.3266 29.2673 16.646 29.8795C16.4132 29.8674 16.1798 29.8876 15.9531 29.9395C15.8462 29.9125 15.7329 29.92 15.6309 29.961C15.5735 29.9821 15.5132 29.9952 15.4519 30C15.4266 30 15.4017 29.9941 15.3793 29.9828C15.357 29.9715 15.3379 29.9552 15.3237 29.9352ZM14.631 22.5463C14.8187 22.7273 15.1394 22.8543 15.3237 23.0868C15.3438 23.1118 15.31 23.1781 15.3237 23.2071C15.3341 23.2283 15.4351 23.2416 15.45 23.2668C15.4972 23.3488 15.4739 23.4241 15.5127 23.5071C15.5303 23.5443 15.6225 23.6438 15.639 23.6878C15.7767 24.0548 15.6967 24.9263 15.639 25.2495C15.4916 25.5337 15.276 25.7808 15.0099 25.9708C14.9467 26.1305 14.7556 26.1688 14.6318 26.2708C14.5028 26.3878 14.2155 26.3548 14.1908 26.5708C14.4006 27.0123 14.689 27.3773 14.8838 27.8325C15.1918 28.1793 15.3438 28.675 15.8275 28.8538C17.3452 26.7563 18.4893 24.3038 19.7965 22.0038C19.7459 21.7721 19.4179 21.8038 19.2923 21.6436C19.1543 21.4923 19.028 21.3316 18.9146 21.1628C18.7602 20.8807 18.654 20.5769 18.6 20.2628C18.527 19.7042 18.6369 19.1378 18.9146 18.6411C19.1361 18.2405 19.4733 17.9087 19.8863 17.6852C20.2994 17.4616 20.7709 17.3556 21.2452 17.3796C21.6159 17.3664 21.8049 17.5268 22.0642 17.6196C22.6756 16.1399 23.5061 14.8696 24.1432 13.4146C24.8744 12.0292 25.6189 10.6564 25.8441 8.78968C25.6644 8.62734 25.4497 8.50438 25.2149 8.42942C25.0749 8.22292 24.9313 8.01892 24.774 7.82942C24.3807 7.88392 24.1959 7.73993 23.8921 7.70918C23.6528 7.54895 23.3999 7.40821 23.136 7.28844C22.7991 6.94894 22.4884 6.58492 22.1282 6.26717C21.8757 5.84705 21.4732 5.52759 20.9941 5.36719C20.0631 5.31994 19.7931 5.90392 19.0415 6.02767C18.7916 6.02292 18.5344 6.02567 18.2772 6.02767C17.7332 6.04768 17.1884 6.02755 16.6476 5.96743C16.3194 5.81089 15.9829 5.67054 15.6396 5.54693C15.2403 5.46693 15.0272 5.2097 14.5054 5.24695C13.3713 5.6077 12.7489 6.45692 11.4187 6.62917H10.6624C9.4826 6.51317 8.78184 5.93917 7.63853 5.78817C7.18341 6.05492 6.89292 6.47869 6.56757 6.86943C6.15256 7.17443 5.84871 7.58591 5.4337 7.89091C5.29199 7.9979 5.14474 8.09805 4.99248 8.19093C4.87791 8.34093 4.562 8.30091 4.55204 8.55115C5.1642 9.7494 5.78423 10.9414 6.37882 12.1557C6.70155 12.7494 7.02453 13.3424 7.38684 13.8979C7.81093 14.4172 8.17032 14.9817 8.4578 15.5801C8.69873 15.7906 8.80883 16.1264 9.02485 16.3608C9.17062 16.6826 9.38271 16.9406 9.52874 17.2621C9.81712 17.8893 10.1516 18.4706 10.4107 19.1241C10.9746 20.3888 11.6601 21.5373 12.3006 22.7286C12.7523 22.5142 13.2493 22.4013 13.7538 22.3983C14.0533 22.3941 14.351 22.4443 14.6308 22.5463H14.631ZM13.6859 24.6491C13.6781 24.7566 13.7646 24.7755 13.7494 24.889C13.8094 25.1473 13.4397 24.9943 13.4348 25.189C13.6083 25.3243 13.6183 25.614 13.7494 25.789C13.9841 25.7339 14.2 25.6222 14.3765 25.4646C14.5529 25.307 14.6839 25.1088 14.7569 24.889C14.5408 25.0363 14.1578 24.9281 14.253 24.5891C14.3164 24.5891 14.3282 24.5405 14.3793 24.529C14.4305 24.5231 14.4824 24.5283 14.5311 24.5444C14.5797 24.5604 14.624 24.5868 14.6604 24.6215C14.6968 24.6562 14.7244 24.6984 14.7412 24.7449C14.7579 24.7913 14.7634 24.8408 14.7571 24.8895H14.8206C14.9493 24.6925 14.8541 24.281 14.8832 23.9895C14.7051 23.7436 14.4935 23.5214 14.254 23.3286C13.7417 23.3505 13.2433 23.4951 12.805 23.749C12.9279 24.0791 13.0754 24.4005 13.2463 24.7105C13.357 24.6784 13.4704 24.6553 13.5852 24.6413C13.6189 24.641 13.6525 24.6435 13.6857 24.6488L13.6859 24.6491ZM20.1119 18.5214C19.9256 18.6184 19.7725 18.7644 19.6709 18.9421C19.6478 18.9781 19.5679 19.0201 19.5451 19.0623C19.5016 19.4843 19.6515 19.7216 19.608 20.1436C19.6966 20.2991 19.6953 20.5408 19.797 20.6841C19.9171 20.8298 19.9299 21.0778 20.1748 21.1046C20.3814 20.9816 20.4155 20.6931 20.5531 20.5046C20.6827 20.2748 20.7881 20.0333 20.8677 19.7836C21.0338 19.5948 21.1426 19.3663 21.1823 19.1228C21.3338 18.9168 21.4607 18.6954 21.5606 18.4626C21.3749 18.3747 21.1696 18.3313 20.9623 18.3361C20.6679 18.3367 20.3772 18.3999 20.1116 18.5211L20.1119 18.5214ZM21.3724 4.46393C21.6112 4.59643 21.8854 4.69543 22.1282 4.82468C22.3168 5.00846 22.5281 5.1698 22.7574 5.30518C23.0044 5.59017 23.266 5.8612 23.5135 6.14645C23.7595 6.28591 23.9914 6.44676 24.2064 6.62694C24.5624 6.66794 24.7126 6.90492 25.0254 6.98717C25.3549 7.25367 25.4913 7.70441 25.9692 7.82841C26.3011 7.82491 26.3955 7.59418 26.6618 7.52843C26.8037 7.41468 26.445 7.23343 26.6618 7.04769C27.4803 7.02744 27.7965 6.52792 28.2999 6.20718C28.5324 5.82818 28.8362 5.51667 28.929 5.00568V4.34495C28.8378 4.21787 28.7734 4.07503 28.7395 3.92445C28.2343 3.46495 27.7771 2.95971 26.7237 3.02446C26.6118 3.53846 26.6173 4.16444 25.9047 4.10569C25.4734 4.01644 25.5639 3.43071 25.4637 3.02446C25.3904 2.95224 25.3269 2.87151 25.2747 2.7842C25.1582 2.67374 25.0317 2.57336 24.8967 2.48421C24.796 2.40921 24.7394 2.30322 24.6447 2.24422C24.5865 2.20772 24.5053 2.21373 24.4557 2.18423C24.3546 2.11836 24.2495 2.05808 24.1411 2.00372C23.5692 1.71285 22.9525 1.51033 22.3141 1.40372C20.8661 1.36447 19.6688 1.56473 18.8493 2.12447C18.8825 2.19097 18.9006 2.26337 18.9026 2.337C18.9045 2.41062 18.8902 2.48381 18.8605 2.55181C18.8308 2.61981 18.7865 2.68112 18.7304 2.73171C18.6742 2.7823 18.6076 2.82103 18.5347 2.84545C17.8924 2.9172 17.8192 2.44546 17.5269 2.18496C16.86 1.70002 16.0833 1.37075 15.2589 1.22348C14.1987 1.14761 13.1328 1.24912 12.1092 1.52347C11.727 1.67942 11.367 1.88104 11.038 2.12347C10.6744 2.33772 10.5292 2.75947 9.96709 2.78447C10.013 3.18897 9.92514 3.4652 9.58905 3.5052C9.27209 3.55145 9.09591 3.31421 8.89614 3.20522C8.53468 2.97055 8.1277 2.80708 7.69909 2.72445H6.50203C5.73116 2.87539 5.0402 3.27933 4.54942 3.86595C4.61758 4.14094 4.90649 4.2062 4.86402 4.58719C4.8011 4.84994 4.45215 4.83945 4.10373 4.82895C3.99887 4.8257 3.8919 4.82296 3.79385 4.82746C3.61676 4.71927 3.44833 4.59866 3.28997 4.46668C2.83066 4.36761 2.35185 4.38844 1.9039 4.52695C1.84917 4.63077 1.76082 4.71499 1.65196 4.76719C1.56871 5.00212 1.50541 5.24308 1.46268 5.4877C1.46705 5.83575 1.53098 6.18077 1.65196 6.50918C1.77308 6.79442 1.82472 7.14568 2.09292 7.29018C1.99791 6.91679 1.9555 6.53299 1.96681 6.14892C2.09187 6.02767 1.98543 5.68593 2.28142 5.72818C2.6938 5.79593 2.44921 6.48994 2.65999 6.74944C2.66257 6.93602 2.7054 7.12008 2.78583 7.29018C2.87287 7.44718 2.8186 7.74017 3.03777 7.77067C3.20425 7.60817 2.91272 7.37218 2.97485 7.11019C2.92472 6.85274 2.90363 6.59091 2.91193 6.32919C3.02886 6.20044 3.04012 5.97068 3.28997 5.96868C3.77078 6.27093 3.43784 7.34917 3.91917 7.65092C4.0804 7.42242 3.80486 7.18392 3.79307 6.92992C3.73539 6.67992 3.63393 6.2277 3.98209 6.20895C4.56593 6.19295 4.23351 7.05018 4.675 7.17018C5.04596 6.84943 4.20808 5.96467 4.86402 5.72818C5.24573 5.78493 5.13904 6.30767 5.43109 6.44942C5.6909 6.08366 6.00938 5.75914 6.37489 5.4877C6.63248 5.2869 6.93376 5.14333 7.25682 5.06745C8.57499 4.8702 9.3093 5.48545 10.4067 5.66745H11.3505C12.545 5.4047 13.0908 4.52319 14.3114 4.28519C14.3474 4.1797 14.2352 3.93269 14.3744 3.92494C14.4119 3.79994 14.2957 3.52994 14.437 3.50419C14.4462 3.19295 14.5351 2.9567 14.8782 2.9637C15.3779 3.11895 14.6221 4.24244 15.2563 4.34544C15.428 3.92894 15.1409 3.0737 15.7602 3.0837C16.036 3.1212 16.0281 3.42946 16.0124 3.74446C16.0541 4.02521 15.8905 4.5017 16.2014 4.5257C16.3962 4.53095 16.3891 4.34445 16.3902 4.1652C16.5441 4.1317 16.5247 3.93294 16.7685 3.98469C16.7947 4.10069 17.0125 4.03245 16.9572 4.2252C16.9572 4.36645 17.0663 4.40195 17.0204 4.5857C16.9667 4.9172 17.1449 5.02744 17.3982 5.06619C17.5366 4.93795 17.496 4.63844 17.7768 4.64594C17.8604 4.70619 18.0109 4.70271 18.0282 4.82621C18.1532 4.86721 17.9891 5.18394 18.2172 5.12619C18.325 5.09374 18.4401 5.09062 18.5496 5.11719C18.6689 5.13615 18.7903 5.13918 18.9104 5.12619C19.1297 5.00341 19.362 4.90287 19.6033 4.82621C19.7441 4.62046 20.0584 4.57921 20.2962 4.46546L21.3724 4.46393ZM15.1984 26.4518C15.3386 25.8968 16.2308 26.4203 15.9544 26.8118C15.8858 26.8485 15.8085 26.8678 15.7298 26.868C15.606 26.8618 15.4875 26.8179 15.3918 26.7427C15.2961 26.6676 15.2281 26.5652 15.1978 26.4505L15.1984 26.4518ZM17.3403 23.8685C17.2708 23.6538 17.0721 23.5633 17.0256 23.3273C16.7772 22.9764 16.586 22.5916 16.4586 22.1861C16.5257 21.6291 16.8901 21.3561 17.2144 21.0446H17.2776C17.7518 21.0928 17.7691 21.5768 18.0334 21.8256C18.2327 22.1163 18.4393 22.4006 18.6626 22.6666C18.6828 22.8073 18.7625 22.8916 18.7258 23.0868C18.8181 23.1393 18.9256 23.1768 18.9148 23.327C18.8297 23.5507 18.687 23.7505 18.4999 23.9079C18.3128 24.0654 18.0872 24.1756 17.8439 24.2283H17.8389C17.5463 24.2283 17.5206 23.9741 17.3397 23.8681L17.3403 23.8685ZM17.0256 22.3063C17.3093 22.6363 17.6535 22.9088 17.9076 23.267C17.8984 23.417 17.8958 23.5588 18.0334 23.5671C18.0628 23.3746 18.2733 23.3556 18.2854 23.1468C17.8947 22.8194 17.5923 22.4074 17.4034 21.9453C17.3133 21.9308 17.2973 21.8453 17.2144 21.8251C17.1722 22.0058 16.9716 22.0351 17.0249 22.3061L17.0256 22.3063ZM13.6227 24.0478C13.5917 24.0044 13.5702 23.9554 13.5594 23.9039C13.5487 23.8523 13.5489 23.7992 13.5601 23.7478C13.6739 23.684 13.8085 23.6628 13.9379 23.6881C13.9116 23.8328 14.0532 23.8183 14.0013 23.9881C13.9262 24.0389 13.8341 24.0616 13.7425 24.0518C13.7037 24.0506 13.6636 24.0506 13.6227 24.0478ZM12.9935 21.3446C11.829 21.0736 11.4704 20.0341 11.2931 18.8216C11.311 18.3597 11.488 17.9162 11.7967 17.5598C11.9973 17.5508 12.0741 17.4236 12.3009 17.4398C12.4721 17.4629 12.6353 17.5238 12.7774 17.6177C12.9196 17.7116 13.0368 17.8359 13.1196 17.9806C13.3852 17.9531 13.4099 17.6963 13.6235 17.6198C13.7452 17.4751 13.9604 17.4199 14.0647 17.2596C14.4457 17.2226 14.6677 17.0326 15.1357 17.0791C15.1881 17.1684 15.3384 17.1661 15.4503 17.1993C15.5831 17.3104 15.6865 17.4499 15.7522 17.6062C15.8179 17.7626 15.844 17.9315 15.8283 18.0993C15.6346 18.7958 14.9729 19.0461 14.3164 19.3008C14.3935 19.5278 14.5906 19.6401 14.5684 19.9618C14.5436 20.2102 14.4562 20.4491 14.3136 20.6583C14.171 20.8674 13.9776 21.0406 13.7496 21.1631C13.5758 21.2829 13.3682 21.3502 13.1537 21.3561C13.1001 21.3564 13.0465 21.3526 12.9935 21.3446ZM12.1748 18.2808C11.7952 19.3013 12.3822 20.3386 13.3087 20.5036C13.4507 20.467 13.5817 20.3989 13.691 20.305C13.8003 20.2111 13.8849 20.094 13.9379 19.9631C13.8592 19.809 13.796 19.6481 13.7494 19.4826C13.6374 19.3686 13.7032 19.0853 13.6859 18.8826C13.8773 18.6846 14.2456 18.6554 14.5681 18.5826C14.7566 18.3219 15.208 18.3116 15.1973 17.8616C15.0321 17.6324 14.8381 17.7316 14.5041 17.7413C14.2609 17.8849 14.0292 18.0457 13.8112 18.2223C13.6649 18.2628 13.6427 18.4223 13.4966 18.4626C13.3679 18.5398 13.3821 18.7536 13.1183 18.7026C12.7206 18.6661 12.692 18.2776 12.2563 18.2776C12.2288 18.2773 12.2014 18.2784 12.174 18.2808H12.1748ZM15.6398 20.7438C15.6419 20.2853 16.0593 20.2226 16.3325 20.0231C16.5506 19.9751 16.5986 20.0896 16.7108 20.1433C16.7425 20.4933 16.5249 20.6066 16.2698 20.6838C16.2406 20.7433 16.1925 20.7926 16.1323 20.8247C16.0722 20.8567 16.003 20.87 15.9345 20.8626C15.8789 20.8666 15.8231 20.8579 15.7716 20.8372C15.7202 20.8166 15.6747 20.7845 15.6388 20.7438H15.6398ZM20.0497 19.9631C19.9137 19.8343 20.0175 19.6273 20.1124 19.5423C20.2959 19.5273 20.33 19.6556 20.427 19.7228C20.4197 19.8913 20.3153 19.9676 20.1313 19.9676C20.1037 19.9675 20.0761 19.966 20.0487 19.9631H20.0497ZM20.2388 19.1218C20.2126 18.9968 20.282 18.9626 20.3017 18.8816C20.3843 18.9031 20.4008 18.9878 20.4907 19.0021C20.4779 19.0898 20.4121 19.1271 20.3072 19.1271C20.2839 19.1267 20.2607 19.125 20.2377 19.1218H20.2388ZM9.65484 16.7191C9.69535 16.6926 9.7413 16.6746 9.78966 16.6663C9.83801 16.658 9.88767 16.6595 9.93533 16.6709C9.983 16.6823 10.0276 16.7032 10.0661 16.7322C10.1047 16.7613 10.1364 16.7978 10.159 16.8394C10.3842 16.8644 10.4621 17.0309 10.4736 17.2599C10.4036 17.3227 10.3115 17.3584 10.2154 17.3599C10.0576 17.3332 9.91478 17.2544 9.81204 17.1371C9.70931 17.0199 9.65327 16.8719 9.6538 16.7191H9.65484ZM16.1437 17.0191C15.9639 16.5589 16.3144 16.1271 16.8369 16.3581C17.0009 16.5427 17.0902 16.7772 17.0888 17.0191C17.0137 17.0898 16.95 17.1708 16.8998 17.2593C16.8766 17.2607 16.854 17.2614 16.8322 17.2614C16.5825 17.2468 16.3427 17.1626 16.1427 17.0194L16.1437 17.0191ZM21.7499 16.1784C21.3018 16.1304 21.2811 15.1034 21.9389 15.2771C22.1725 15.4729 22.2422 16.1788 21.7675 16.1788L21.7499 16.1784ZM10.284 15.8784C9.41575 15.5049 8.76349 14.9249 8.70896 13.7756C8.7637 13.415 8.89204 13.0682 9.08673 12.7546C9.58604 12.285 10.2232 11.9712 10.9138 11.8546C10.9022 11.8046 10.9384 11.7979 10.977 11.7946H11.4179C11.919 11.9167 12.3761 12.1658 12.7408 12.5154C12.7352 12.5549 12.7449 12.595 12.768 12.6282C12.7912 12.6614 12.8263 12.6853 12.8667 12.6956C12.8986 12.7884 12.8913 12.8421 12.9301 12.9361C12.997 13.047 13.0398 13.1696 13.0559 13.2966C13.0648 13.3679 13.1152 13.3934 13.1186 13.4169C13.2533 14.2796 12.9188 15.2479 12.4259 15.6396C11.9527 15.8397 11.4416 15.9454 10.924 15.9504C10.7084 15.9511 10.4935 15.9268 10.284 15.8779V15.8784ZM10.2211 12.8746C10.126 13.2851 9.93273 13.5996 9.84281 14.0161C9.88595 14.2406 9.94892 14.4612 10.0311 14.6756C10.2628 14.7351 10.3871 14.8969 10.6603 14.9156C10.862 14.9746 11.0739 14.9954 11.2839 14.9766C11.3497 14.9766 11.415 14.9751 11.4795 14.9766C11.49 14.9066 11.5792 14.9114 11.6686 14.9166C11.7773 14.8142 11.9056 14.7328 12.0466 14.6766C12.1774 14.432 12.2626 14.1676 12.2985 13.8951C12.2595 13.6302 12.1964 13.3689 12.1098 13.1144C11.9666 13.0704 11.9213 12.9334 11.8576 12.8144C11.6013 12.6895 11.3241 12.6082 11.0386 12.5741C10.7542 12.6419 10.4796 12.7427 10.2209 12.8741L10.2211 12.8746ZM17.7178 15.7581C17.6173 15.6584 17.4839 15.5948 17.34 15.5781C17.2655 15.4712 17.1812 15.3708 17.0881 15.2781C17.0206 15.1896 16.9772 15.0865 16.9617 14.9781C16.8503 14.5531 16.9593 13.6154 17.2763 13.2356C17.2467 13.1509 17.1161 13.1626 16.9853 13.1749C16.9146 13.1853 16.8428 13.1853 16.7721 13.1749C16.7428 13.0901 16.6122 13.1019 16.4814 13.1139C16.4107 13.1243 16.3387 13.1243 16.268 13.1139C16.2111 12.9889 15.9122 13.0926 15.8899 12.9336C15.6923 12.9619 15.7235 12.7719 15.5753 12.7534C15.4233 12.3311 15.5882 11.8979 15.7017 11.5519C15.9455 11.2236 16.2523 10.9547 16.5205 10.6507C16.871 10.5242 17.1185 10.3007 17.5285 10.2304C17.9394 10.1284 18.3645 10.0879 18.7885 10.1102C19.8869 10.2642 20.6034 10.7827 20.7411 11.8526C20.7327 12.3446 20.7104 12.8249 20.4265 13.0541C20.0055 13.0689 19.5839 13.0488 19.1665 12.9939C19.0092 13.0911 19.2782 13.2831 19.2923 13.4146C19.4441 13.4896 19.4192 13.7341 19.5445 13.8351C19.7108 14.7601 19.3099 15.4336 18.6624 15.7574L17.7178 15.7581ZM17.7812 12.5141C17.9975 13.3001 17.4404 14.3569 17.9071 15.0371C17.981 15.0471 18.0858 15.0271 18.0961 15.0976C18.5965 15.1146 18.6954 14.7476 18.789 14.3766C18.8029 14.0429 18.5963 13.9199 18.5368 13.6554C18.5517 13.3611 18.4259 13.2006 18.4741 12.8744C18.5193 12.8253 18.5537 12.7682 18.5754 12.7063C18.5971 12.6444 18.6056 12.579 18.6005 12.5139C18.6571 12.5431 18.7207 12.5577 18.7851 12.5563C18.8495 12.5549 18.9124 12.5376 18.9675 12.5059C19.0508 12.4716 19.1406 12.454 19.2313 12.4541C19.2955 12.3854 19.4365 12.3899 19.5773 12.3939C19.7181 12.3979 19.8594 12.4024 19.9239 12.3339C19.954 11.9447 19.7991 11.7324 19.7351 11.4339C19.5763 11.3046 19.3838 11.2089 19.2313 11.0731C19.1571 11.0639 19.0522 11.0834 19.0422 11.0134C18.951 11.0134 18.8587 11.0134 18.7672 11.0121C18.3747 10.9954 17.9815 11.0159 17.5932 11.0734C17.0548 11.3809 16.5016 11.6734 16.2706 12.2749C16.5262 12.2908 16.7795 12.3311 17.0267 12.3952C17.0804 12.3939 17.1339 12.3929 17.1864 12.3929C17.3929 12.3729 17.6009 12.4151 17.781 12.5136L17.7812 12.5141ZM11.1484 14.2221C11.14 14.0756 11.2651 13.9289 11.5417 14.0761V14.3761C11.4868 14.4081 11.4242 14.4262 11.36 14.4286C11.3034 14.4274 11.2496 14.405 11.2103 14.3662C11.1709 14.3275 11.149 14.2756 11.1495 14.2216L11.1484 14.2221ZM10.5979 13.4754C10.6144 13.4517 10.6357 13.4314 10.6604 13.4156C10.6852 13.3997 10.713 13.3887 10.7423 13.3831C10.7715 13.3775 10.8017 13.3775 10.8309 13.383C10.8602 13.3885 10.888 13.3995 10.9129 13.4153C10.9377 13.431 10.959 13.4513 10.9756 13.4749C10.9922 13.4986 11.0038 13.5251 11.0096 13.553C11.0155 13.5809 11.0155 13.6096 11.0097 13.6375C11.0039 13.6654 10.9924 13.692 10.9759 13.7156C10.9484 13.7186 10.9207 13.72 10.8931 13.7201C10.7103 13.7196 10.6062 13.6434 10.5989 13.4756L10.5979 13.4754ZM11.4169 13.4754C11.3714 13.4027 11.3474 13.3197 11.3474 13.2351C11.3474 13.1505 11.3714 13.0675 11.4169 12.9949H11.6688C11.7142 13.0675 11.7382 13.1506 11.7382 13.2351C11.7382 13.3197 11.7142 13.4027 11.6688 13.4754H11.4169ZM22.7566 12.7546C22.7925 12.3296 23.5567 12.5709 23.5127 12.9349C23.4375 12.9994 23.3391 13.0338 23.238 13.0309C23.1387 13.0324 23.041 13.0073 22.9561 12.9583C22.8711 12.9094 22.8024 12.8386 22.7577 12.7541L22.7566 12.7546ZM7.25891 11.1324C7.25052 10.7489 8.16626 10.6942 8.14057 11.1324C8.11435 11.3009 7.93818 11.3719 7.7502 11.3719C7.5368 11.3714 7.30452 11.2784 7.25995 11.1319L7.25891 11.1324ZM22.4412 10.4116C22.4273 10.1997 22.4724 9.98795 22.5721 9.798C22.6717 9.60805 22.8223 9.44665 23.0086 9.33017H23.3866C23.8105 9.75517 23.39 10.5032 22.9456 10.6519C22.7552 10.6251 22.5789 10.5407 22.4425 10.4112L22.4412 10.4116ZM13.5588 10.2912C13.4508 10.2588 13.3456 10.2186 13.2442 10.1709C13.0939 10.0294 12.9664 9.86748 12.8659 9.6904C12.8027 9.60115 12.7267 9.52741 12.6771 9.45041C12.615 9.35266 12.6074 9.23817 12.5507 9.15042C12.4406 8.97792 12.2694 8.82192 12.1729 8.67017C12.1119 8.57392 12.0943 8.4524 12.0469 8.37016C11.9955 8.28231 11.9319 8.20151 11.8578 8.12992C11.9215 7.76893 11.7653 7.61717 11.7315 7.34892C11.8751 7.06245 12.0913 6.81463 12.3607 6.62792C12.6063 6.55159 12.8711 6.55159 13.1168 6.62792C13.5391 7.06642 13.7481 7.70843 14.188 8.12968C14.4415 8.72967 15.0366 9.00216 15.1318 9.7514C14.8491 10.1014 14.3065 10.2062 13.8718 10.4124C13.8508 10.421 13.8283 10.4256 13.8055 10.4259C13.7119 10.4256 13.649 10.3334 13.5598 10.2909L13.5588 10.2912ZM12.2359 7.58793C12.2763 7.84943 12.5633 7.87667 12.6137 8.12892C12.7872 8.27452 12.9176 8.4611 12.9917 8.66993C13.3278 8.94993 13.4544 9.42992 13.8107 9.69092C13.8547 9.53242 14.0991 9.5639 14.1253 9.3909C13.8487 9.08053 13.6157 8.73716 13.4321 8.36942C13.2195 8.00493 13.0127 7.64217 12.8029 7.28792H12.7969C12.5051 7.28717 12.4346 7.49792 12.2369 7.58742L12.2359 7.58793ZM7.95182 9.45065C7.84695 9.25065 7.74208 9.05065 7.63722 8.85065C7.55251 8.77375 7.48616 8.68038 7.44269 8.57685C7.39921 8.47332 7.37964 8.36207 7.38527 8.25068C7.3852 8.08097 7.43942 7.91526 7.5407 7.77571C7.64197 7.63616 7.78549 7.5294 7.95208 7.46968H8.5194C8.52963 7.54018 8.63423 7.51968 8.70843 7.52968C8.80281 7.59993 8.86258 7.70341 9.02303 7.71016C9.27309 7.93948 9.461 8.22332 9.5706 8.53721C9.6802 8.8511 9.70821 9.18565 9.65222 9.51215C9.52717 9.61339 9.55208 9.85742 9.40081 9.93292C9.34995 10.0849 9.14126 10.0859 9.0225 10.1729C8.99978 10.1739 8.97767 10.1744 8.95618 10.1744C8.37023 10.1722 8.18593 9.78765 7.95286 9.45065H7.95182ZM8.01474 8.30891C7.98852 8.67365 8.23706 8.77792 8.32934 9.02967C8.49188 9.23541 8.59596 9.4964 8.89614 9.57065C9.23486 8.9349 8.85759 8.08317 8.14004 8.06867C8.14109 8.18742 7.97016 8.14467 8.01578 8.30842L8.01474 8.30891ZM16.5197 7.88868C16.4767 7.43719 17.1591 7.16719 17.4013 7.52794C17.3832 7.66236 17.3156 7.78625 17.2105 7.87751C17.1054 7.96878 16.9698 8.02146 16.8277 8.02616C16.7689 8.02713 16.7106 8.01518 16.6574 7.99125C16.6041 7.96732 16.5574 7.93206 16.5207 7.88816L16.5197 7.88868ZM18.8503 7.10768C18.9151 7.02868 18.9125 6.88617 18.9767 6.80767C19.5797 6.77317 19.7656 7.13718 19.9847 7.46867C19.9847 7.68942 19.7642 7.69893 19.6701 7.82917C19.1841 7.79142 19.026 7.44141 18.8516 7.10716L18.8503 7.10768Z" fill="#FA4A0C"/>
</svg>
