<svg width="60" height="58" viewBox="0 0 60 58" xmlns="http://www.w3.org/2000/svg">
<path fill-rule="evenodd" clip-rule="evenodd" d="M51 31.4286H42C37.029 31.4286 33 35.2657 33 40V48.5714C33 53.3057 37.029 57.1429 42 57.1429H51C55.971 57.1429 60 53.3057 60 48.5714V40C60 35.2657 55.971 31.4286 51 31.4286ZM18 31.4286H9C4.029 31.4286 0 35.2657 0 40V48.5714C0 53.3057 4.029 57.1429 9 57.1429H18C22.971 57.1429 27 53.3057 27 48.5714V40C27 35.2657 22.971 31.4286 18 31.4286ZM51 0H42C37.029 0 33 3.83714 33 8.57143V17.1429C33 21.8771 37.029 25.7143 42 25.7143H51C55.971 25.7143 60 21.8771 60 17.1429V8.57143C60 3.83714 55.971 0 51 0ZM27 8.57143V17.1429C27 21.8771 22.971 25.7143 18 25.7143H9C4.029 25.7143 0 21.8771 0 17.1429V8.57143C0 3.83714 4.029 0 9 0H18C22.971 0 27 3.83714 27 8.57143Z"/>
</svg>
