<svg width="32" height="19" viewBox="0 0 32 19" xmlns="http://www.w3.org/2000/svg">
<path d="M30.7791 11.8528L30.7794 7.95431C31.4846 7.74244 32 7.08763 32 6.31437C32 2.83262 29.1674 0 25.6856 0H6.31475C2.833 0 0.000375 2.83262 0.000375 6.31437C0.000375 7.08756 0.51575 7.74244 1.22094 7.95431L1.22063 11.8529C0.515375 12.0647 0 12.7196 0 13.4928V14.9077C0 16.8926 1.61519 18.5074 3.6005 18.5074H28.3999C30.3848 18.5074 31.9996 16.8926 31.9996 14.9077V13.4928C31.9996 12.7194 31.4843 12.0644 30.7791 11.8528ZM24.6768 1.10413L25.9098 2.33719C26.254 2.68188 26.254 3.24256 25.9103 3.58675C25.5654 3.93113 25.0048 3.93125 24.6605 3.587L22.1778 1.10419L24.6768 1.10413ZM16.3906 1.10413L17.6236 2.33719C17.9678 2.68188 17.9678 3.24256 17.6241 3.58675C17.2794 3.931 16.7188 3.93087 16.3744 3.587L13.8916 1.10419L16.3906 1.10413ZM6.31469 1.10419H8.10456L9.33756 2.33725C9.68169 2.68194 9.68169 3.24262 9.33806 3.58681C8.99338 3.93094 8.43269 3.93094 8.08831 3.58706L5.64944 1.14819C5.8675 1.12025 6.08919 1.10419 6.31469 1.10419ZM1.1045 6.31437C1.1045 4.11469 2.47544 2.23038 4.40725 1.46744L7.30781 4.368C7.69519 4.75494 8.204 4.94837 8.71288 4.94837C9.22194 4.94837 9.73113 4.75475 10.1188 4.3675C10.8928 3.59263 10.8928 2.33181 10.1186 1.55669L9.66613 1.10425H12.33L15.5938 4.36806C15.9813 4.755 16.49 4.94844 16.9989 4.94844C17.5079 4.94844 18.0171 4.75481 18.4049 4.36756C19.1788 3.59269 19.1788 2.33188 18.4046 1.55675L17.9522 1.10431H20.6161L23.8796 4.36788C24.2669 4.75519 24.7757 4.94875 25.2847 4.94875C25.7938 4.94875 26.303 4.75506 26.6909 4.36763C27.4648 3.59275 27.4648 2.33194 26.6907 1.55681L26.2721 1.13825C28.8698 1.43081 30.8956 3.64 30.8956 6.3145C30.8956 6.64975 30.6229 6.9225 30.2876 6.9225H30.2272H1.77294H1.7125C1.37725 6.92237 1.1045 6.64962 1.1045 6.31437ZM2.32506 9.35119V8.0265H29.6752V9.35119H2.32506ZM29.6749 10.4557V11.7805H14.503L15.8276 10.4557H29.6749ZM14.2661 10.4557L10.8516 13.8708L7.43656 10.4557H14.2661ZM7.19975 11.7805H2.32475V10.4557H5.875L7.19975 11.7805ZM28.3999 17.4032H3.6005C2.22406 17.4032 1.10425 16.2836 1.10425 14.9076V13.4928C1.10425 13.1574 1.37706 12.8847 1.71231 12.8847H1.77269H8.304L10.4612 15.0419C10.5647 15.1454 10.7051 15.2036 10.8516 15.2036C10.998 15.2036 11.1384 15.1454 11.242 15.0419L13.3989 12.8847H30.227H30.2881C30.623 12.8847 30.8954 13.1574 30.8954 13.4928V14.9076C30.8954 16.2837 29.7759 17.4032 28.3999 17.4032Z"/>
</svg>
