<svg width="20" height="20" viewBox="0 0 20 20" fill="none" xmlns="http://www.w3.org/2000/svg">
<path d="M4.93332 1.95555L4.40887 2.48888L4.93332 3.02222L5.46665 3.55555L5.99999 3.02222L6.53332 2.48888L5.99999 1.95555L5.46665 1.42222L4.93332 1.95555Z" fill="#FA4A0C"/>
<path d="M7.28889 4.66666C7.28889 7.28888 7.19111 7.41333 5.28889 7.42222C4.32889 7.42222 4.18667 7.40444 3.85778 7.21777C3.31556 6.90666 3.15556 6.56888 3.16444 5.82222C3.17333 5.36888 3.25333 5.00444 3.44889 4.48L3.71556 3.75111L2.98667 3.43111C2.59556 3.25333 2.24 3.11111 2.21333 3.11111C2.09778 3.11111 1.69778 4.24888 1.54667 4.97777C1.28 6.32888 1.58222 7.46666 2.41778 8.22222C3.06667 8.80888 3.65333 8.99555 4.96 9.04888C6.64889 9.11111 7.63556 8.83555 8.24889 8.14222C8.87111 7.43111 8.97778 6.91555 8.97778 4.66666V2.93333H8.13333H7.28889V4.66666Z" fill="#FA4A0C"/>
<path d="M14.0622 9.09333L13.6 9.56444L14.1155 10.0711L14.6311 10.5778L15.1111 10.0889L15.5911 9.6L15.1111 9.11111C14.8444 8.84444 14.6044 8.62222 14.5778 8.62222C14.5511 8.62222 14.32 8.83555 14.0622 9.09333Z" fill="#FA4A0C"/>
<path d="M16.1956 9.09333L15.7333 9.56444L16.2489 10.0711L16.7644 10.5778L17.2622 10.0711L17.76 9.55555L17.2444 9.08444C16.96 8.83555 16.7111 8.62222 16.6933 8.62222C16.6756 8.62222 16.4533 8.83555 16.1956 9.09333Z" fill="#FA4A0C"/>
<path d="M1.79554 12.1867C1.82221 14.8 1.83998 15.0933 1.99109 15.3778C2.42665 16.2044 2.95109 16.4889 4.04443 16.4889C4.63998 16.4889 4.91554 16.4444 5.12887 16.3289C5.41332 16.1778 5.43109 16.1778 5.79554 16.3644C6.78221 16.8711 7.84887 17.0311 8.47109 16.7644C9.51998 16.3289 9.90221 14.6667 9.26221 13.2978C8.83554 12.3822 8.04443 11.9289 7.05776 12.0267C5.98221 12.1333 5.21776 12.8889 4.76443 14.2756C4.65776 14.5956 4.55109 14.7644 4.39109 14.8356C4.07109 14.9778 3.77776 14.96 3.61776 14.7733C3.48443 14.6311 3.46665 14.32 3.46665 12.3022V9.99111L2.78221 9.70667C2.39998 9.55555 2.01776 9.40444 1.92887 9.36889C1.77776 9.31555 1.76887 9.44889 1.79554 12.1867ZM7.74221 13.92C7.97332 14.16 8.07109 14.8978 7.91998 15.1822C7.79554 15.4133 7.46665 15.3778 6.84443 15.0667C6.47998 14.8889 6.44443 14.8444 6.46221 14.5778C6.47998 14.08 6.99554 13.5644 7.37776 13.6622C7.46665 13.6889 7.62665 13.8044 7.74221 13.92Z" fill="#FA4A0C"/>
<path d="M12 11.1022C11.0045 11.4311 10.4178 12.24 10.3289 13.4222C10.2756 14.2311 10.4178 14.6933 10.88 15.1467C11.3511 15.6267 11.9111 15.8222 12.7734 15.8222C13.5022 15.8222 13.5734 15.9022 13.2089 16.2933C12.8978 16.6311 12.4 16.8089 11.6267 16.8622L10.9334 16.9156V17.7422V18.5778H11.1911C11.7245 18.5778 13.04 18.2933 13.5378 18.0711C14.1956 17.7689 14.7911 17.1289 14.9778 16.5067C15.0489 16.2578 15.1111 16.0089 15.1111 15.9467C15.1111 15.8756 15.3867 15.8311 16.0267 15.8044C17.0578 15.76 17.5556 15.5911 18.0178 15.1111C18.4711 14.6489 18.5778 14.1867 18.5778 12.7733V11.5378L18.3378 11.6C18.1956 11.6267 17.8222 11.7333 17.4934 11.84L16.8889 12.0178V12.9156C16.8889 13.4133 16.8534 13.8667 16.8178 13.9289C16.7022 14.1156 16.2756 14.2222 15.68 14.2222H15.1111V13.6444C15.1111 12.1689 14.1867 11.1289 12.8089 11.0578C12.4889 11.04 12.1245 11.0578 12 11.1022ZM13.2534 13.0133C13.36 13.1911 13.4222 13.4578 13.4222 13.7511V14.2222H12.9245C12.16 14.2222 11.9111 14.0444 11.9111 13.5022C11.9111 12.7022 12.8534 12.3556 13.2534 13.0133Z" fill="#FA4A0C"/>
</svg>
